<?xml version="1.0" encoding="utf-8"?>
<!-- Generator: Adobe Illustrator 26.5.0, SVG Export Plug-In . SVG Version: 6.00 Build 0)  -->
<svg version="1.1" id="Layer_1" xmlns="http://www.w3.org/2000/svg" xmlns:xlink="http://www.w3.org/1999/xlink" x="0px" y="0px"
	 viewBox="0 0 14173.2 14173.2" style="enable-background:new 0 0 14173.2 14173.2;" xml:space="preserve">
<style type="text/css">
	.st0{fill:#3399FF;}
	.st1{fill-rule:evenodd;clip-rule:evenodd;fill:#FF8854;}
	.st2{fill-rule:evenodd;clip-rule:evenodd;fill:#3399FF;}
</style>
<path class="st0" d="M4540.4,10552.8c61.8,32.3,109.5,77.5,142.9,135.4c33.4,57.9,50.1,125.3,50.1,202.2c0,78-17.3,146.5-51.8,205.6
	c-34.6,59.1-83.6,104.8-147.1,137.1c-63.5,32.3-138.2,48.5-224,48.5h-264.1v342.7h-275.8v-1119.9h551.6
	C4405.9,10504.3,4478.6,10520.5,4540.4,10552.8z M4416.7,11008.2c30.6-28.4,46-66.6,46-114.5c0-45.7-15.6-82.7-46.8-111.1
	c-31.2-28.4-73-42.6-125.3-42.6h-244.1v310.9h244.1C4344,11050.9,4386.1,11036.7,4416.7,11008.2z"/>
<path class="st0" d="M5138.8,10430.8c29.5,30.1,44.3,65.8,44.3,107c0,42.4-14.8,77.7-44.3,106.1c-29.5,28.4-66.6,42.6-111.1,42.6
	c-44.6,0-81.4-14.2-110.3-42.6c-29-28.4-43.4-63.8-43.4-106.1c0-42.3,14.5-78.3,43.4-107.8c29-29.5,65.7-44.3,110.3-44.3
	C5072.2,10385.6,5109.2,10400.7,5138.8,10430.8z M4893.9,10785.1h267.4v839.1h-267.4V10785.1z"/>
<path class="st0" d="M6063.9,10803.5c49,29,87.2,70,114.5,122.9c27.3,52.9,41,113.9,41,183v514.8h-265.8v-458
	c0-49-13.4-88.8-40.1-119.5c-26.7-30.6-61.3-46-103.6-46c-54.6,0-97.2,19.2-127.9,57.7c-30.7,38.5-46,97.2-46,176.3v389.5h-267.4
	v-839.1H5636v80.2c32.3-33.4,70.2-59.3,113.6-77.7c43.5-18.4,91.4-27.6,143.8-27.6C5958,10760,6014.8,10774.5,6063.9,10803.5z"/>
<path class="st0" d="M7426.1,11624.2v-558.3l-292.5,558.3h-170.5l-294.2-561.6v561.6h-267.4v-1119.9h270.8l376.1,693.7l376.1-693.7
	h269.1v1119.9H7426.1z"/>
<path class="st0" d="M8094.7,11273.2c11.1,50.1,32.8,89.7,65.2,118.7c32.3,29,70.8,43.5,115.3,43.5c83.6,0,143.2-32.3,178.8-96.9
	l237.3,48.5c-35.7,86.9-89.4,152.4-161.3,196.4c-71.9,44-156.8,66-254.9,66c-80.2,0-154.4-18.7-222.3-56
	c-68-37.3-121.8-89.7-161.3-157.1c-39.5-67.4-59.3-144.6-59.3-231.5c0-85.8,19.8-162.4,59.3-229.8c39.5-67.4,93.3-120.1,161.3-158
	c67.9-37.9,142.6-56.8,224-56.8c79.1,0,151.3,18.1,216.4,54.3c65.2,36.2,117.3,88,156.3,155.5s59.1,145.7,60.2,234.8v68.5H8094.7z
	 M8168.2,11012.4c-33.4,23.4-56.3,55.7-68.5,97h346c-12.3-43.5-33.4-76.3-63.5-98.6c-30.1-22.3-65.2-33.4-105.3-33.4
	C8237.9,10977.3,8201.7,10989,8168.2,11012.4z"/>
<path class="st0" d="M9224.9,11624.2h-274.1V10745h-362.7v-240.7h999.5v240.7h-362.7V11624.2z"/>
<path class="st0" d="M10173.5,10819.4c70.2,37.3,125.9,89.4,167.1,156.3c41.2,66.9,61.8,143.2,61.8,229
	c0,85.8-20.6,162.4-61.8,229.8c-41.2,67.4-96.9,119.8-167.1,157.1c-70.2,37.3-147.1,56-230.6,56c-84.7,0-162.4-18.7-233.2-56
	c-70.8-37.3-127-89.7-168.8-157.1c-41.8-67.4-62.7-144-62.7-229.8c0-85.8,20.9-162.1,62.7-229s98-118.9,168.8-156.3
	c70.8-37.3,148.5-56,233.2-56C10026.4,10763.4,10103.3,10782.1,10173.5,10819.4z M10041.5,11394.3c31.2-18.4,56.3-44,75.2-76.9
	c18.9-32.8,28.4-70.5,28.4-112.8c0-42.3-9.5-79.9-28.4-112.8c-19-32.9-44-58.5-75.2-76.9c-31.2-18.4-64.1-27.6-98.6-27.6
	c-36.8,0-71,9.2-102.8,27.6c-31.8,18.4-57.1,44-76,76.9c-19,32.9-28.4,70.5-28.4,112.8c0,42.4,9.5,80.2,28.4,113.7
	c18.9,33.4,44.3,59.1,76,76.9s66,26.7,102.8,26.7C9977.4,11421.9,10010.3,11412.7,10041.5,11394.3z"/>
<path class="st0" d="M7003.6,9844.1L6867,9198.7c-134.9-637-370.8-1229.3-742.7-1863.9c-153.9-262.6-327.4-518.5-495.3-765.9
	c-97.1-143.1-197.4-291-293.7-439.8c-56.6-87.3-108.5-177.9-158.7-265.5c-30.1-52.5-60.3-105.3-91.7-157.6
	c-152.4-254.3-326.1-609.4-316-1103c8.2-398.6,120.6-764.6,334.2-1088c350-529.9,898.2-873.3,1543.5-966.9
	c510-74.1,1054.8,25.3,1494.4,272.7c299.8,168.8,549.3,401.1,741.4,690.3c217.5,327.7,328.1,682.3,338.1,1084.1
	c5.1,204.9-25.6,420.1-88.8,622.3c-43.4,139.3-105.8,258.8-166.2,374.2c-17.6,33.6-35.2,67.3-52.3,101.5
	c-150.6,301.3-338.3,575.3-520,840.2c-538.7,785.2-1040.3,1579.7-1259.1,2664.1L7003.6,9844.1z M6983.6,2796.6
	c-99.9,0-199.5,7-297.8,21.3c-567.3,82.3-1048.6,383.2-1355.1,847.3c-187.3,283.6-281.9,592.2-289.1,943.3
	c-8.7,424,143.6,734.3,277.3,957.2c32.3,53.9,63.4,108.2,94.4,162.3c50.6,88.3,98.3,171.7,150.9,252.8
	c94.7,146.4,194.3,293.1,290.5,435c170.3,251.1,346.5,510.7,504.9,781.1c284.2,485.1,492.4,947.3,638.8,1422.5
	c264.5-874,703.9-1561.1,1169.8-2240.3c176.4-257.3,358.7-523.3,501-807.9c17.9-35.7,36.2-70.8,54.5-105.9
	c57.3-109.6,111.4-213.1,147.5-329.1c54.5-174.2,80.9-358.9,76.5-534.3c-8.8-353.8-101.8-652.5-292.6-940
	c-168.1-253-386.1-456.1-648-603.5C7703.6,2887.5,7342.7,2796.6,6983.6,2796.6z"/>
<path class="st1" d="M6149.9,6068.8c73.4,89,151.8,113.4,293.2,40c436.5-226.4,839.5-447.6,1280.6-668.2
	c126.6-63.2,125.4-124.9,21.5-202.1c-611.2-454.2-1222.7-908.2-1830.6-1365.2c-135.6-101.9-199.4-58.4-274,52.8
	C5288.9,4450.3,5472.1,5232,6149.9,6068.8"/>
<path class="st2" d="M8513.1,4486.1c-199.1-918.7-1001.6-1491-2170.8-1170.2c-209.7,71.3-222.8,116.1-64.3,233.9
	c606,451.1,1213.1,901.7,1819.3,1352.6C8640.6,5362.4,8533.8,4667.5,8513.1,4486.1"/>
<path class="st1" d="M7885,5853.3c-26.3,13.5-846.9,432.2-1270.6,648.1c-93.9,47.8-108.8,110-59.8,187.3
	c116.1,183.1,229.7,367.4,347.3,549.9c50.4,78.3,121.7,127.4,191.4,17.7c287.8-452.6,852.7-1331.4,853.7-1361.9
	C7948,5863.9,7911.3,5839.9,7885,5853.3"/>
</svg>
